<svg width="34" height="34" viewBox="0 0 34 34" fill="none" xmlns="http://www.w3.org/2000/svg">
<g clip-path="url(#clip0_926_232)">
<path d="M16.9998 33.9997C26.3886 33.9997 33.9997 26.3886 33.9997 16.9998C33.9997 7.61109 26.3886 0 16.9998 0C7.61109 0 0 7.61109 0 16.9998C0 26.3886 7.61109 33.9997 16.9998 33.9997Z" fill="#55ACEE"/>
<path d="M27.4115 12.218C26.6829 12.541 25.8993 12.7595 25.0775 12.8571C25.9166 12.3544 26.5605 11.5589 26.8645 10.6095C26.0793 11.0752 25.2093 11.4131 24.2841 11.5953C23.5429 10.8058 22.4868 10.3125 21.3174 10.3125C19.0737 10.3125 17.2539 12.1322 17.2539 14.3759C17.2539 14.6944 17.29 15.0044 17.3597 15.302C13.9826 15.1326 10.9883 13.515 8.98399 11.0559C8.63428 11.6559 8.43367 12.3544 8.43367 13.0989C8.43367 14.5084 9.15157 15.7526 10.2413 16.4811C9.57552 16.4602 8.94854 16.2775 8.40094 15.9723C8.40064 15.9896 8.40064 16.0069 8.40064 16.0239C8.40064 17.9927 9.80189 19.6349 11.6604 20.0079C11.3198 20.1012 10.9601 20.1506 10.5901 20.1506C10.3277 20.1506 10.0734 20.1255 9.82553 20.0782C10.3425 21.6922 11.8429 22.8671 13.6214 22.9001C12.2304 23.9901 10.4786 24.6396 8.57428 24.6396C8.247 24.6396 7.92275 24.6205 7.60547 24.5826C9.40279 25.7359 11.5392 26.4084 13.8338 26.4084C21.308 26.4084 25.3953 20.2167 25.3953 14.8466C25.3953 14.6705 25.3914 14.495 25.3835 14.3211C26.1781 13.7483 26.8669 13.0329 27.4115 12.218Z" fill="#F1F2F2"/>
</g>
<defs>
<clipPath id="clip0_926_232">
<rect width="34" height="34" fill="white"/>
</clipPath>
</defs>
</svg>
