<svg width="34" height="34" viewBox="0 0 34 34" fill="none" xmlns="http://www.w3.org/2000/svg">
<path d="M17.0043 0H16.9958C7.6224 0 2.2306e-05 7.6245 2.2306e-05 17C-0.00579828 20.5806 1.12765 24.0703 3.2364 26.9641L1.11777 33.2796L7.65215 31.1907C10.4239 33.0297 13.678 34.0071 17.0043 34C26.3776 34 34 26.3734 34 17C34 7.62662 26.3776 0 17.0043 0Z" fill="#4CAF50"/>
<path d="M26.8942 24.0061C26.4841 25.1643 24.8563 26.1248 23.558 26.4053C22.6697 26.5944 21.5095 26.7453 17.6037 25.126C12.6078 23.0563 9.39059 17.9796 9.13984 17.6503C8.89972 17.3209 7.12109 14.9621 7.12109 12.5226C7.12109 10.0831 8.35997 8.89527 8.85934 8.38527C9.26947 7.96664 9.94734 7.77539 10.5976 7.77539C10.808 7.77539 10.9971 7.78602 11.1671 7.79452C11.6665 7.81577 11.9172 7.84552 12.2466 8.63389C12.6567 9.62202 13.6555 12.0615 13.7745 12.3123C13.8956 12.563 14.0167 12.903 13.8467 13.2324C13.6873 13.5724 13.5471 13.7233 13.2963 14.0123C13.0456 14.3013 12.8076 14.5223 12.5568 14.8325C12.3273 15.1024 12.0681 15.3914 12.3571 15.8908C12.6461 16.3795 13.6448 18.0094 15.1153 19.3184C17.013 21.0078 18.5515 21.5475 19.1018 21.777C19.512 21.947 20.0007 21.9066 20.3003 21.5879C20.6807 21.1778 21.1503 20.4978 21.6285 19.8284C21.9685 19.3481 22.3977 19.2886 22.8482 19.4586C23.3072 19.618 25.7361 20.8186 26.2355 21.0673C26.7348 21.318 27.0642 21.437 27.1853 21.6474C27.3043 21.8578 27.3043 22.8459 26.8942 24.0061Z" fill="#FAFAFA"/>
</svg>
